<mxfile host="app.diagrams.net" modified="2022-05-25T04:26:50.232Z" agent="5.0 (Windows NT 10.0; Win64; x64) AppleWebKit/537.36 (KHTML, like Gecko) Chrome/101.0.4951.64 Safari/537.36 Edg/101.0.1210.53" etag="SpgM1wU21ZpiWfvoO-bK" version="18.1.2" type="github">
  <diagram id="6892DLRuOYMeWGzuRMaD" name="Page-1">
    <mxGraphModel dx="1209" dy="749" grid="0" gridSize="10" guides="1" tooltips="1" connect="1" arrows="1" fold="1" page="0" pageScale="1" pageWidth="1200" pageHeight="1920" math="0" shadow="0">
      <root>
        <mxCell id="0" />
        <mxCell id="1" parent="0" />
        <mxCell id="oK6Q0EZ_InrDpfW5e9Y5-10" value="" style="rounded=0;whiteSpace=wrap;html=1;fillColor=default;" parent="1" vertex="1">
          <mxGeometry x="147" y="459" width="447" height="120" as="geometry" />
        </mxCell>
        <mxCell id="oK6Q0EZ_InrDpfW5e9Y5-36" style="edgeStyle=orthogonalEdgeStyle;rounded=0;orthogonalLoop=1;jettySize=auto;html=1;exitX=0.348;exitY=1.004;exitDx=0;exitDy=0;entryX=1;entryY=0.75;entryDx=0;entryDy=0;fontSize=18;exitPerimeter=0;fillColor=#dae8fc;strokeColor=#6c8ebf;" parent="1" source="oK6Q0EZ_InrDpfW5e9Y5-1" target="oK6Q0EZ_InrDpfW5e9Y5-22" edge="1">
          <mxGeometry relative="1" as="geometry" />
        </mxCell>
        <mxCell id="oK6Q0EZ_InrDpfW5e9Y5-1" value="" style="rounded=0;whiteSpace=wrap;html=1;" parent="1" vertex="1">
          <mxGeometry x="433" y="154" width="360" height="240" as="geometry" />
        </mxCell>
        <mxCell id="oK6Q0EZ_InrDpfW5e9Y5-2" value="" style="rounded=0;whiteSpace=wrap;html=1;" parent="1" vertex="1">
          <mxGeometry x="147" y="154" width="207" height="240" as="geometry" />
        </mxCell>
        <mxCell id="oK6Q0EZ_InrDpfW5e9Y5-3" value="" style="rounded=0;whiteSpace=wrap;html=1;" parent="1" vertex="1">
          <mxGeometry x="872" y="154" width="180" height="423" as="geometry" />
        </mxCell>
        <mxCell id="oK6Q0EZ_InrDpfW5e9Y5-4" value="" style="rounded=0;whiteSpace=wrap;html=1;" parent="1" vertex="1">
          <mxGeometry x="634" y="457" width="239" height="120" as="geometry" />
        </mxCell>
        <mxCell id="oK6Q0EZ_InrDpfW5e9Y5-5" value="" style="endArrow=none;dashed=1;html=1;rounded=0;" parent="1" edge="1">
          <mxGeometry width="50" height="50" relative="1" as="geometry">
            <mxPoint x="612" y="70" as="sourcePoint" />
            <mxPoint x="613" y="602" as="targetPoint" />
          </mxGeometry>
        </mxCell>
        <mxCell id="oK6Q0EZ_InrDpfW5e9Y5-9" value="" style="rounded=0;whiteSpace=wrap;html=1;fillColor=default;strokeColor=none;" parent="1" vertex="1">
          <mxGeometry x="857" y="458.5" width="120" height="117.5" as="geometry" />
        </mxCell>
        <mxCell id="oK6Q0EZ_InrDpfW5e9Y5-12" value="EL0" style="text;html=1;strokeColor=none;fillColor=none;align=center;verticalAlign=middle;whiteSpace=wrap;rounded=0;fontSize=18;" parent="1" vertex="1">
          <mxGeometry x="38" y="154" width="60" height="30" as="geometry" />
        </mxCell>
        <mxCell id="oK6Q0EZ_InrDpfW5e9Y5-13" value="EL1" style="text;html=1;strokeColor=none;fillColor=none;align=center;verticalAlign=middle;whiteSpace=wrap;rounded=0;fontSize=18;" parent="1" vertex="1">
          <mxGeometry x="38" y="251" width="60" height="30" as="geometry" />
        </mxCell>
        <mxCell id="oK6Q0EZ_InrDpfW5e9Y5-14" value="EL2" style="text;html=1;strokeColor=none;fillColor=none;align=center;verticalAlign=middle;whiteSpace=wrap;rounded=0;fontSize=18;" parent="1" vertex="1">
          <mxGeometry x="38" y="347" width="60" height="30" as="geometry" />
        </mxCell>
        <mxCell id="oK6Q0EZ_InrDpfW5e9Y5-15" value="EL3" style="text;html=1;strokeColor=none;fillColor=none;align=center;verticalAlign=middle;whiteSpace=wrap;rounded=0;fontSize=18;" parent="1" vertex="1">
          <mxGeometry x="47" y="504" width="60" height="30" as="geometry" />
        </mxCell>
        <mxCell id="oK6Q0EZ_InrDpfW5e9Y5-16" value="CCA" style="text;html=1;strokeColor=none;fillColor=none;align=center;verticalAlign=middle;whiteSpace=wrap;rounded=0;fontSize=18;" parent="1" vertex="1">
          <mxGeometry x="325" y="106" width="135" height="30" as="geometry" />
        </mxCell>
        <mxCell id="oK6Q0EZ_InrDpfW5e9Y5-17" value="TrustZone" style="text;html=1;strokeColor=none;fillColor=none;align=center;verticalAlign=middle;whiteSpace=wrap;rounded=0;fontSize=18;" parent="1" vertex="1">
          <mxGeometry x="756" y="106" width="135" height="30" as="geometry" />
        </mxCell>
        <mxCell id="oK6Q0EZ_InrDpfW5e9Y5-18" value="REE" style="text;html=1;strokeColor=none;fillColor=none;align=center;verticalAlign=middle;whiteSpace=wrap;rounded=0;fontSize=18;" parent="1" vertex="1">
          <mxGeometry x="496" y="256" width="60" height="30" as="geometry" />
        </mxCell>
        <mxCell id="oK6Q0EZ_InrDpfW5e9Y5-19" value="REE" style="text;html=1;strokeColor=none;fillColor=none;align=center;verticalAlign=middle;whiteSpace=wrap;rounded=0;fontSize=18;" parent="1" vertex="1">
          <mxGeometry x="676" y="256" width="60" height="30" as="geometry" />
        </mxCell>
        <mxCell id="oK6Q0EZ_InrDpfW5e9Y5-20" value="Realm World" style="text;html=1;strokeColor=none;fillColor=none;align=center;verticalAlign=middle;whiteSpace=wrap;rounded=0;fontSize=18;" parent="1" vertex="1">
          <mxGeometry x="191" y="167" width="119" height="30" as="geometry" />
        </mxCell>
        <mxCell id="oK6Q0EZ_InrDpfW5e9Y5-21" value="Secure World" style="text;html=1;strokeColor=none;fillColor=none;align=center;verticalAlign=middle;whiteSpace=wrap;rounded=0;fontSize=18;" parent="1" vertex="1">
          <mxGeometry x="902.5" y="167" width="119" height="30" as="geometry" />
        </mxCell>
        <mxCell id="oK6Q0EZ_InrDpfW5e9Y5-35" style="edgeStyle=orthogonalEdgeStyle;rounded=0;orthogonalLoop=1;jettySize=auto;html=1;exitX=0;exitY=0.75;exitDx=0;exitDy=0;entryX=0.25;entryY=1;entryDx=0;entryDy=0;fontSize=18;fillColor=#dae8fc;strokeColor=#6c8ebf;" parent="1" source="oK6Q0EZ_InrDpfW5e9Y5-22" target="oK6Q0EZ_InrDpfW5e9Y5-27" edge="1">
          <mxGeometry relative="1" as="geometry" />
        </mxCell>
        <mxCell id="oK6Q0EZ_InrDpfW5e9Y5-37" style="edgeStyle=orthogonalEdgeStyle;rounded=0;orthogonalLoop=1;jettySize=auto;html=1;exitX=1;exitY=0.25;exitDx=0;exitDy=0;entryX=0.113;entryY=1.001;entryDx=0;entryDy=0;entryPerimeter=0;fontSize=18;fillColor=#dae8fc;strokeColor=#6c8ebf;" parent="1" source="oK6Q0EZ_InrDpfW5e9Y5-22" target="oK6Q0EZ_InrDpfW5e9Y5-1" edge="1">
          <mxGeometry relative="1" as="geometry" />
        </mxCell>
        <mxCell id="oK6Q0EZ_InrDpfW5e9Y5-22" value="Dispatcher" style="rounded=1;whiteSpace=wrap;html=1;fontSize=18;fillColor=default;" parent="1" vertex="1">
          <mxGeometry x="310.5" y="489" width="120" height="60" as="geometry" />
        </mxCell>
        <mxCell id="oK6Q0EZ_InrDpfW5e9Y5-38" style="edgeStyle=orthogonalEdgeStyle;rounded=0;orthogonalLoop=1;jettySize=auto;html=1;exitX=0.25;exitY=1;exitDx=0;exitDy=0;entryX=1;entryY=0.25;entryDx=0;entryDy=0;fontSize=18;fillColor=#f8cecc;strokeColor=#b85450;" parent="1" source="oK6Q0EZ_InrDpfW5e9Y5-28" target="oK6Q0EZ_InrDpfW5e9Y5-23" edge="1">
          <mxGeometry relative="1" as="geometry" />
        </mxCell>
        <mxCell id="oK6Q0EZ_InrDpfW5e9Y5-40" style="edgeStyle=orthogonalEdgeStyle;rounded=0;orthogonalLoop=1;jettySize=auto;html=1;exitX=0.58;exitY=0.996;exitDx=0;exitDy=0;entryX=0;entryY=0.75;entryDx=0;entryDy=0;fontSize=18;exitPerimeter=0;fillColor=#f8cecc;strokeColor=#b85450;" parent="1" source="oK6Q0EZ_InrDpfW5e9Y5-1" target="oK6Q0EZ_InrDpfW5e9Y5-23" edge="1">
          <mxGeometry relative="1" as="geometry" />
        </mxCell>
        <mxCell id="oK6Q0EZ_InrDpfW5e9Y5-42" style="edgeStyle=orthogonalEdgeStyle;rounded=0;orthogonalLoop=1;jettySize=auto;html=1;exitX=0;exitY=0.25;exitDx=0;exitDy=0;entryX=0.73;entryY=1.004;entryDx=0;entryDy=0;fontSize=18;entryPerimeter=0;fillColor=#f8cecc;strokeColor=#b85450;" parent="1" source="oK6Q0EZ_InrDpfW5e9Y5-23" target="oK6Q0EZ_InrDpfW5e9Y5-1" edge="1">
          <mxGeometry relative="1" as="geometry" />
        </mxCell>
        <mxCell id="oK6Q0EZ_InrDpfW5e9Y5-23" value="Dispatcher" style="rounded=1;whiteSpace=wrap;html=1;fontSize=18;fillColor=default;" parent="1" vertex="1">
          <mxGeometry x="739" y="491" width="120" height="60" as="geometry" />
        </mxCell>
        <mxCell id="oK6Q0EZ_InrDpfW5e9Y5-34" style="edgeStyle=orthogonalEdgeStyle;rounded=0;orthogonalLoop=1;jettySize=auto;html=1;exitX=0.75;exitY=1;exitDx=0;exitDy=0;entryX=0;entryY=0.25;entryDx=0;entryDy=0;fontSize=18;fillColor=#dae8fc;strokeColor=#6c8ebf;" parent="1" source="oK6Q0EZ_InrDpfW5e9Y5-27" target="oK6Q0EZ_InrDpfW5e9Y5-22" edge="1">
          <mxGeometry relative="1" as="geometry" />
        </mxCell>
        <mxCell id="oK6Q0EZ_InrDpfW5e9Y5-27" value="RMM" style="rounded=1;whiteSpace=wrap;html=1;fontSize=18;fillColor=default;" parent="1" vertex="1">
          <mxGeometry x="190.5" y="331" width="120" height="56" as="geometry" />
        </mxCell>
        <mxCell id="oK6Q0EZ_InrDpfW5e9Y5-39" style="edgeStyle=orthogonalEdgeStyle;rounded=0;orthogonalLoop=1;jettySize=auto;html=1;exitX=1;exitY=0.75;exitDx=0;exitDy=0;entryX=0.75;entryY=1;entryDx=0;entryDy=0;fontSize=18;fillColor=#f8cecc;strokeColor=#b85450;" parent="1" source="oK6Q0EZ_InrDpfW5e9Y5-23" target="oK6Q0EZ_InrDpfW5e9Y5-28" edge="1">
          <mxGeometry relative="1" as="geometry" />
        </mxCell>
        <mxCell id="oK6Q0EZ_InrDpfW5e9Y5-28" value="Trusted OS" style="rounded=1;whiteSpace=wrap;html=1;fontSize=18;fillColor=default;" parent="1" vertex="1">
          <mxGeometry x="906" y="238" width="120" height="56" as="geometry" />
        </mxCell>
        <mxCell id="oK6Q0EZ_InrDpfW5e9Y5-43" value="1" style="ellipse;whiteSpace=wrap;html=1;aspect=fixed;fontSize=18;fillColor=default;" parent="1" vertex="1">
          <mxGeometry x="527" y="419" width="29" height="29" as="geometry" />
        </mxCell>
        <mxCell id="oK6Q0EZ_InrDpfW5e9Y5-44" value="2" style="ellipse;whiteSpace=wrap;html=1;aspect=fixed;fontSize=18;fillColor=default;" parent="1" vertex="1">
          <mxGeometry x="356" y="550" width="29" height="29" as="geometry" />
        </mxCell>
        <mxCell id="oK6Q0EZ_InrDpfW5e9Y5-45" value="3" style="ellipse;whiteSpace=wrap;html=1;aspect=fixed;fontSize=18;fillColor=default;" parent="1" vertex="1">
          <mxGeometry x="182" y="419" width="29" height="29" as="geometry" />
        </mxCell>
        <mxCell id="oK6Q0EZ_InrDpfW5e9Y5-46" value="4" style="ellipse;whiteSpace=wrap;html=1;aspect=fixed;fontSize=18;fillColor=default;" parent="1" vertex="1">
          <mxGeometry x="286" y="419" width="29" height="29" as="geometry" />
        </mxCell>
        <mxCell id="oK6Q0EZ_InrDpfW5e9Y5-47" value="5" style="ellipse;whiteSpace=wrap;html=1;aspect=fixed;fontSize=18;fillColor=default;" parent="1" vertex="1">
          <mxGeometry x="354" y="460" width="29" height="29" as="geometry" />
        </mxCell>
        <mxCell id="oK6Q0EZ_InrDpfW5e9Y5-48" value="6" style="ellipse;whiteSpace=wrap;html=1;aspect=fixed;fontSize=18;fillColor=default;" parent="1" vertex="1">
          <mxGeometry x="443" y="419" width="29" height="29" as="geometry" />
        </mxCell>
        <mxCell id="oK6Q0EZ_InrDpfW5e9Y5-49" value="1" style="ellipse;whiteSpace=wrap;html=1;aspect=fixed;fontSize=18;fillColor=default;" parent="1" vertex="1">
          <mxGeometry x="647" y="419" width="29" height="29" as="geometry" />
        </mxCell>
        <mxCell id="oK6Q0EZ_InrDpfW5e9Y5-50" value="2" style="ellipse;whiteSpace=wrap;html=1;aspect=fixed;fontSize=18;fillColor=default;" parent="1" vertex="1">
          <mxGeometry x="784.5" y="551" width="29" height="29" as="geometry" />
        </mxCell>
        <mxCell id="oK6Q0EZ_InrDpfW5e9Y5-51" value="3" style="ellipse;whiteSpace=wrap;html=1;aspect=fixed;fontSize=18;fillColor=default;" parent="1" vertex="1">
          <mxGeometry x="1002" y="403" width="29" height="29" as="geometry" />
        </mxCell>
        <mxCell id="oK6Q0EZ_InrDpfW5e9Y5-52" value="4" style="ellipse;whiteSpace=wrap;html=1;aspect=fixed;fontSize=18;fillColor=default;" parent="1" vertex="1">
          <mxGeometry x="902.5" y="403" width="29" height="29" as="geometry" />
        </mxCell>
        <mxCell id="oK6Q0EZ_InrDpfW5e9Y5-53" value="5" style="ellipse;whiteSpace=wrap;html=1;aspect=fixed;fontSize=18;fillColor=default;" parent="1" vertex="1">
          <mxGeometry x="782" y="458.5" width="29" height="29" as="geometry" />
        </mxCell>
        <mxCell id="oK6Q0EZ_InrDpfW5e9Y5-54" value="6" style="ellipse;whiteSpace=wrap;html=1;aspect=fixed;fontSize=18;fillColor=default;" parent="1" vertex="1">
          <mxGeometry x="701" y="419" width="29" height="29" as="geometry" />
        </mxCell>
      </root>
    </mxGraphModel>
  </diagram>
</mxfile>
